<?xml version="1.0" encoding="UTF-8" standalone="no"?>
<!DOCTYPE svg PUBLIC "-//W3C//DTD SVG 1.1//EN"
 "http://www.w3.org/Graphics/SVG/1.1/DTD/svg11.dtd">
<!-- Generated by graphviz version 2.40.1 (20161225.0304)
 -->
<!-- Title: G Pages: 1 -->
<svg width="777pt" height="696pt"
 viewBox="0.00 0.00 777.42 696.00" xmlns="http://www.w3.org/2000/svg" xmlns:xlink="http://www.w3.org/1999/xlink">
<g id="graph0" class="graph" transform="scale(1 1) rotate(0) translate(4 692)">
<title>G</title>
<polygon fill="#ffffff" stroke="transparent" points="-4,4 -4,-692 773.4163,-692 773.4163,4 -4,4"/>
<!-- A0 -->
<g id="node1" class="node">
<title>A0</title>
<ellipse fill="none" stroke="#000000" cx="370.8193" cy="-677" rx="11" ry="11"/>
</g>
<!-- A1 -->
<g id="node2" class="node">
<title>A1</title>
<path fill="none" stroke="#000000" d="M413.5117,-618C413.5117,-618 328.1268,-618 328.1268,-618 322.1268,-618 316.1268,-612 316.1268,-606 316.1268,-606 316.1268,-594 316.1268,-594 316.1268,-588 322.1268,-582 328.1268,-582 328.1268,-582 413.5117,-582 413.5117,-582 419.5117,-582 425.5117,-588 425.5117,-594 425.5117,-594 425.5117,-606 425.5117,-606 425.5117,-612 419.5117,-618 413.5117,-618"/>
<text text-anchor="middle" x="370.8193" y="-597" font-family="Helvetica,sans-Serif" font-size="10.00" fill="#000000">{Kernel is running}</text>
</g>
<!-- A0&#45;&gt;A1 -->
<g id="edge1" class="edge">
<title>A0&#45;&gt;A1</title>
<path fill="none" stroke="#000000" d="M370.8193,-665.9678C370.8193,-656.124 370.8193,-641.2813 370.8193,-628.1664"/>
<polygon fill="#000000" stroke="#000000" points="370.8193,-618.1474 375.3194,-628.1473 370.8193,-623.1474 370.8194,-628.1474 370.8194,-628.1474 370.8194,-628.1474 370.8193,-623.1474 366.3194,-628.1474 370.8193,-618.1474 370.8193,-618.1474"/>
<text text-anchor="middle" x="399.1583" y="-639" font-family="Helvetica,sans-Serif" font-size="10.00" fill="#000000">_Start kernel</text>
</g>
<!-- A2 -->
<g id="node3" class="node">
<title>A2</title>
<path fill="none" stroke="#000000" d="M394.7203,-534C394.7203,-534 346.9182,-534 346.9182,-534 340.9182,-534 334.9182,-528 334.9182,-522 334.9182,-522 334.9182,-510 334.9182,-510 334.9182,-504 340.9182,-498 346.9182,-498 346.9182,-498 394.7203,-498 394.7203,-498 400.7203,-498 406.7203,-504 406.7203,-510 406.7203,-510 406.7203,-522 406.7203,-522 406.7203,-528 400.7203,-534 394.7203,-534"/>
<text text-anchor="middle" x="370.8193" y="-513" font-family="Helvetica,sans-Serif" font-size="10.00" fill="#000000">{Retrieve}</text>
</g>
<!-- A1&#45;&gt;A2 -->
<g id="edge2" class="edge">
<title>A1&#45;&gt;A2</title>
<path fill="none" stroke="#000000" d="M370.8193,-581.7733C370.8193,-570.8758 370.8193,-556.7946 370.8193,-544.4587"/>
<polygon fill="#000000" stroke="#000000" points="370.8193,-534.1912 375.3194,-544.1911 370.8193,-539.1912 370.8194,-544.1912 370.8194,-544.1912 370.8194,-544.1912 370.8193,-539.1912 366.3194,-544.1912 370.8193,-534.1912 370.8193,-534.1912"/>
<text text-anchor="middle" x="397.4993" y="-555" font-family="Helvetica,sans-Serif" font-size="10.00" fill="#000000">_Set up env</text>
</g>
<!-- A3 -->
<g id="node4" class="node">
<title>A3</title>
<path fill="none" stroke="#000000" d="M386.5548,-450C386.5548,-450 355.0838,-450 355.0838,-450 349.0838,-450 343.0838,-444 343.0838,-438 343.0838,-438 343.0838,-426 343.0838,-426 343.0838,-420 349.0838,-414 355.0838,-414 355.0838,-414 386.5548,-414 386.5548,-414 392.5548,-414 398.5548,-420 398.5548,-426 398.5548,-426 398.5548,-438 398.5548,-438 398.5548,-444 392.5548,-450 386.5548,-450"/>
<text text-anchor="middle" x="370.8193" y="-429" font-family="Helvetica,sans-Serif" font-size="10.00" fill="#000000">{EDA}</text>
</g>
<!-- A2&#45;&gt;A3 -->
<g id="edge3" class="edge">
<title>A2&#45;&gt;A3</title>
<path fill="none" stroke="#000000" d="M334.6733,-498.265C328.0666,-493.3042 322.063,-487.2413 318.2453,-480 311.6728,-467.5339 321.385,-456.6502 334.1793,-448.4124"/>
<polygon fill="#000000" stroke="#000000" points="342.8918,-443.3911 336.4748,-452.2834 338.5598,-445.8878 334.2278,-448.3845 334.2278,-448.3845 334.2278,-448.3845 338.5598,-445.8878 331.9807,-444.4857 342.8918,-443.3911 342.8918,-443.3911"/>
<text text-anchor="middle" x="361.6063" y="-471" font-family="Helvetica,sans-Serif" font-size="10.00" fill="#000000">___Import modules</text>
</g>
<!-- A2&#45;&gt;A3 -->
<g id="edge4" class="edge">
<title>A2&#45;&gt;A3</title>
<path fill="none" stroke="#000000" d="M392.3378,-497.6947C397.0073,-492.5016 401.2989,-486.4795 403.8193,-480 406.7579,-472.4454 404.621,-464.9158 400.2989,-458.1362"/>
<polygon fill="#000000" stroke="#000000" points="393.8732,-450.0044 403.6039,-455.0605 396.9732,-453.9275 400.0732,-457.8505 400.0732,-457.8505 400.0732,-457.8505 396.9732,-453.9275 396.5424,-460.6405 393.8732,-450.0044 393.8732,-450.0044"/>
<text text-anchor="middle" x="443.7218" y="-471" font-family="Helvetica,sans-Serif" font-size="10.00" fill="#000000">___Reading Data</text>
</g>
<!-- A4 -->
<g id="node5" class="node">
<title>A4</title>
<path fill="none" stroke="#000000" d="M385.8193,-366C385.8193,-366 355.8193,-366 355.8193,-366 349.8193,-366 343.8193,-360 343.8193,-354 343.8193,-354 343.8193,-342 343.8193,-342 343.8193,-336 349.8193,-330 355.8193,-330 355.8193,-330 385.8193,-330 385.8193,-330 391.8193,-330 397.8193,-336 397.8193,-342 397.8193,-342 397.8193,-354 397.8193,-354 397.8193,-360 391.8193,-366 385.8193,-366"/>
<text text-anchor="middle" x="370.8193" y="-345" font-family="Helvetica,sans-Serif" font-size="10.00" fill="#000000">{FE}</text>
</g>
<!-- A3&#45;&gt;A4 -->
<g id="edge5" class="edge">
<title>A3&#45;&gt;A4</title>
<path fill="none" stroke="#000000" d="M343.0939,-431.3873C261.3313,-429.2967 25.4715,-421.121 2.6873,-396 -.8958,-392.0495 -.8958,-387.9505 2.6873,-384 24.6333,-359.8031 244.266,-351.3278 333.4629,-348.8687"/>
<polygon fill="#000000" stroke="#000000" points="343.6719,-348.5979 333.7948,-353.3615 338.6737,-348.7305 333.6754,-348.8631 333.6754,-348.8631 333.6754,-348.8631 338.6737,-348.7305 333.5561,-344.3647 343.6719,-348.5979 343.6719,-348.5979"/>
<text text-anchor="middle" x="50.8853" y="-387" font-family="Helvetica,sans-Serif" font-size="10.00" fill="#000000">____Data Description</text>
</g>
<!-- A3&#45;&gt;A4 -->
<g id="edge6" class="edge">
<title>A3&#45;&gt;A4</title>
<path fill="none" stroke="#000000" d="M342.7522,-429.9955C280.6026,-425.2719 135.7099,-412.5806 121.3503,-396 92.8081,-363.0434 257.1341,-352.3623 333.4582,-349.2067"/>
<polygon fill="#000000" stroke="#000000" points="343.6145,-348.8098 333.7979,-353.697 338.6184,-349.0051 333.6222,-349.2004 333.6222,-349.2004 333.6222,-349.2004 338.6184,-349.0051 333.4464,-344.7038 343.6145,-348.8098 343.6145,-348.8098"/>
<text text-anchor="middle" x="199.0538" y="-387" font-family="Helvetica,sans-Serif" font-size="10.00" fill="#000000">____Host Distribution Visualization</text>
</g>
<!-- A3&#45;&gt;A4 -->
<g id="edge7" class="edge">
<title>A3&#45;&gt;A4</title>
<path fill="none" stroke="#000000" d="M343.2012,-425.9256C327.1487,-420.8241 308.2165,-411.7448 298.4643,-396 287.2126,-377.8343 310.605,-365.0691 333.7256,-357.2933"/>
<polygon fill="#000000" stroke="#000000" points="343.516,-354.2651 335.2923,-361.5191 338.7393,-355.7426 333.9625,-357.2201 333.9625,-357.2201 333.9625,-357.2201 338.7393,-355.7426 332.6328,-352.921 343.516,-354.2651 343.516,-354.2651"/>
<text text-anchor="middle" x="360.4968" y="-387" font-family="Helvetica,sans-Serif" font-size="10.00" fill="#000000">____Categories Distribution</text>
</g>
<!-- A3&#45;&gt;A4 -->
<g id="edge8" class="edge">
<title>A3&#45;&gt;A4</title>
<path fill="none" stroke="#000000" d="M398.6021,-420.1147C414.3381,-411.4971 429.4829,-398.7902 421.8193,-384 418.2542,-377.1197 412.7022,-371.2745 406.5513,-366.4228"/>
<polygon fill="#000000" stroke="#000000" points="397.9228,-360.4189 408.7014,-362.4367 402.027,-363.2747 406.1312,-366.1305 406.1312,-366.1305 406.1312,-366.1305 402.027,-363.2747 403.5609,-369.8243 397.9228,-360.4189 397.9228,-360.4189"/>
<text text-anchor="middle" x="474.6653" y="-387" font-family="Helvetica,sans-Serif" font-size="10.00" fill="#000000">____Common features</text>
</g>
<!-- A3&#45;&gt;A4 -->
<g id="edge9" class="edge">
<title>A3&#45;&gt;A4</title>
<path fill="none" stroke="#000000" d="M398.6267,-429.7913C439.757,-425.8822 513.6992,-416.1779 529.8193,-396 533.1482,-391.8331 533.1482,-388.1669 529.8193,-384 514.8772,-365.2966 450.2547,-355.592 408.1336,-351.1603"/>
<polygon fill="#000000" stroke="#000000" points="397.9536,-350.145 408.3509,-346.6598 402.9289,-350.6413 407.9042,-351.1375 407.9042,-351.1375 407.9042,-351.1375 402.9289,-350.6413 407.4576,-355.6153 397.9536,-350.145 397.9536,-350.145"/>
<text text-anchor="middle" x="584.0693" y="-387" font-family="Helvetica,sans-Serif" font-size="10.00" fill="#000000">____Length of contents</text>
</g>
<!-- A3&#45;&gt;A4 -->
<g id="edge10" class="edge">
<title>A3&#45;&gt;A4</title>
<path fill="none" stroke="#000000" d="M398.7128,-430.3317C464.4975,-426.1135 625.0101,-414.0569 640.8193,-396 672.2217,-360.1327 489.2727,-351.0078 408.1136,-348.7346"/>
<polygon fill="#000000" stroke="#000000" points="397.8261,-348.4681 407.9394,-344.2287 402.8244,-348.5976 407.8228,-348.7272 407.8228,-348.7272 407.8228,-348.7272 402.8244,-348.5976 407.7062,-353.2257 397.8261,-348.4681 397.8261,-348.4681"/>
<text text-anchor="middle" x="706.6178" y="-387" font-family="Helvetica,sans-Serif" font-size="10.00" fill="#000000">____Most popular questions</text>
</g>
<!-- A5 -->
<g id="node6" class="node">
<title>A5</title>
<path fill="none" stroke="#000000" d="M397.7796,-282C397.7796,-282 343.8589,-282 343.8589,-282 337.8589,-282 331.8589,-276 331.8589,-270 331.8589,-270 331.8589,-258 331.8589,-258 331.8589,-252 337.8589,-246 343.8589,-246 343.8589,-246 397.7796,-246 397.7796,-246 403.7796,-246 409.7796,-252 409.7796,-258 409.7796,-258 409.7796,-270 409.7796,-270 409.7796,-276 403.7796,-282 397.7796,-282"/>
<text text-anchor="middle" x="370.8193" y="-261" font-family="Helvetica,sans-Serif" font-size="10.00" fill="#000000">{Modelling}</text>
</g>
<!-- A4&#45;&gt;A5 -->
<g id="edge11" class="edge">
<title>A4&#45;&gt;A5</title>
<path fill="none" stroke="#000000" d="M343.7827,-343.6345C312.1563,-337.9118 262.7025,-326.8318 251.6903,-312 230.8146,-283.8835 280.3876,-272.1997 321.8283,-267.3681"/>
<polygon fill="#000000" stroke="#000000" points="331.8691,-266.3074 322.3972,-271.8332 326.8967,-266.8327 321.9244,-267.3581 321.9244,-267.3581 321.9244,-267.3581 326.8967,-266.8327 321.4516,-262.883 331.8691,-266.3074 331.8691,-266.3074"/>
<text text-anchor="middle" x="279.8838" y="-303" font-family="Helvetica,sans-Serif" font-size="10.00" fill="#000000">___Cleaning</text>
</g>
<!-- A4&#45;&gt;A5 -->
<g id="edge12" class="edge">
<title>A4&#45;&gt;A5</title>
<path fill="none" stroke="#000000" d="M344.0684,-329.6332C338.742,-324.5883 333.8841,-318.649 330.9283,-312 327.4483,-304.1719 329.9226,-296.6007 335.0054,-289.8744"/>
<polygon fill="#000000" stroke="#000000" points="341.9698,-282.4017 338.4439,-292.7853 338.5609,-286.0595 335.1519,-289.7172 335.1519,-289.7172 335.1519,-289.7172 338.5609,-286.0595 331.8599,-286.6492 341.9698,-282.4017 341.9698,-282.4017"/>
<text text-anchor="middle" x="361.2648" y="-303" font-family="Helvetica,sans-Serif" font-size="10.00" fill="#000000">___Dummies</text>
</g>
<!-- A4&#45;&gt;A5 -->
<g id="edge13" class="edge">
<title>A4&#45;&gt;A5</title>
<path fill="none" stroke="#000000" d="M383.894,-329.6891C388.6521,-320.893 392.3189,-310.0915 389.8193,-300 389.1184,-297.1704 388.15,-294.3179 387.0186,-291.5235"/>
<polygon fill="#000000" stroke="#000000" points="382.6956,-282.3636 391.0333,-289.4864 384.8297,-286.8853 386.9637,-291.407 386.9637,-291.407 386.9637,-291.407 384.8297,-286.8853 382.8942,-293.3277 382.6956,-282.3636 382.6956,-282.3636"/>
<text text-anchor="middle" x="435.9303" y="-303" font-family="Helvetica,sans-Serif" font-size="10.00" fill="#000000">___TF&#45;IDF with SVD</text>
</g>
<!-- A4&#45;&gt;A5 -->
<g id="edge14" class="edge">
<title>A4&#45;&gt;A5</title>
<path fill="none" stroke="#000000" d="M398.0103,-343.2885C428.5867,-337.3716 475.3515,-326.2456 485.8193,-312 505.6177,-285.0563 459.5996,-273.1507 420.016,-267.9459"/>
<polygon fill="#000000" stroke="#000000" points="409.8729,-266.7335 420.3363,-263.4522 414.8375,-267.3269 419.8022,-267.9204 419.8022,-267.9204 419.8022,-267.9204 414.8375,-267.3269 419.2681,-272.3886 409.8729,-266.7335 409.8729,-266.7335"/>
<text text-anchor="middle" x="552.0523" y="-303" font-family="Helvetica,sans-Serif" font-size="10.00" fill="#000000">___Vectorization with BERT</text>
</g>
<!-- A6 -->
<g id="node7" class="node">
<title>A6</title>
<path fill="none" stroke="#000000" d="M402.8383,-198C402.8383,-198 338.8003,-198 338.8003,-198 332.8003,-198 326.8003,-192 326.8003,-186 326.8003,-186 326.8003,-174 326.8003,-174 326.8003,-168 332.8003,-162 338.8003,-162 338.8003,-162 402.8383,-162 402.8383,-162 408.8383,-162 414.8383,-168 414.8383,-174 414.8383,-174 414.8383,-186 414.8383,-186 414.8383,-192 408.8383,-198 402.8383,-198"/>
<text text-anchor="middle" x="370.8193" y="-177" font-family="Helvetica,sans-Serif" font-size="10.00" fill="#000000">{Deployment}</text>
</g>
<!-- A5&#45;&gt;A6 -->
<g id="edge15" class="edge">
<title>A5&#45;&gt;A6</title>
<path fill="none" stroke="#000000" d="M331.9049,-262.9226C278.373,-260.5264 186.2507,-252.8117 165.4093,-228 144.741,-203.3944 248.9372,-189.9672 316.5182,-183.9553"/>
<polygon fill="#000000" stroke="#000000" points="326.6146,-183.0876 317.0367,-188.4274 321.633,-183.5158 316.6513,-183.944 316.6513,-183.944 316.6513,-183.944 321.633,-183.5158 316.266,-179.4605 326.6146,-183.0876 326.6146,-183.0876"/>
<text text-anchor="middle" x="221.5243" y="-219" font-family="Helvetica,sans-Serif" font-size="10.00" fill="#000000">___Model BERT &gt; LSTM</text>
</g>
<!-- A5&#45;&gt;A6 -->
<g id="edge16" class="edge">
<title>A5&#45;&gt;A6</title>
<path fill="none" stroke="#000000" d="M331.9952,-253.2885C319.5755,-247.8253 307.1866,-239.7597 299.9713,-228 291.8524,-214.7676 302.1649,-204.3404 317.2151,-196.633"/>
<polygon fill="#000000" stroke="#000000" points="326.5204,-192.4086 319.275,-200.6399 321.9676,-194.4755 317.4148,-196.5424 317.4148,-196.5424 317.4148,-196.5424 321.9676,-194.4755 315.5546,-192.4448 326.5204,-192.4086 326.5204,-192.4086"/>
<text text-anchor="middle" x="361.2433" y="-219" font-family="Helvetica,sans-Serif" font-size="10.00" fill="#000000">___Model TFIDF &gt; DENSE</text>
</g>
<!-- A5&#45;&gt;A6 -->
<g id="edge17" class="edge">
<title>A5&#45;&gt;A6</title>
<path fill="none" stroke="#000000" d="M405.2292,-245.9673C411.5104,-241.0251 417.2106,-235.0449 420.8193,-228 425.13,-219.5844 422.0836,-211.8127 415.7905,-205.0825"/>
<polygon fill="#000000" stroke="#000000" points="407.8819,-198.2071 418.3812,-201.372 411.6554,-201.4876 415.4288,-204.7681 415.4288,-204.7681 415.4288,-204.7681 411.6554,-201.4876 412.4764,-208.1642 407.8819,-198.2071 407.8819,-198.2071"/>
<text text-anchor="middle" x="509.0788" y="-219" font-family="Helvetica,sans-Serif" font-size="10.00" fill="#000000">___Model BERT &gt; MultiTaskElasticNet</text>
</g>
<!-- A5&#45;&gt;A6 -->
<g id="edge18" class="edge">
<title>A5&#45;&gt;A6</title>
<path fill="none" stroke="#000000" d="M409.5931,-260.634C471.6596,-254.85 587.6246,-242.2615 599.8193,-228 623.6141,-200.1723 500.3418,-187.7342 425.3276,-182.8106"/>
<polygon fill="#000000" stroke="#000000" points="415.0834,-182.1649 425.3467,-178.303 420.0735,-182.4795 425.0636,-182.7941 425.0636,-182.7941 425.0636,-182.7941 420.0735,-182.4795 424.7805,-187.2851 415.0834,-182.1649 415.0834,-182.1649"/>
<text text-anchor="middle" x="654.7753" y="-219" font-family="Helvetica,sans-Serif" font-size="10.00" fill="#000000">___Spearman Callback</text>
</g>
<!-- A7 -->
<g id="node8" class="node">
<title>A7</title>
<path fill="none" stroke="#000000" d="M397.9024,-114C397.9024,-114 343.7362,-114 343.7362,-114 337.7362,-114 331.7362,-108 331.7362,-102 331.7362,-102 331.7362,-90 331.7362,-90 331.7362,-84 337.7362,-78 343.7362,-78 343.7362,-78 397.9024,-78 397.9024,-78 403.9024,-78 409.9024,-84 409.9024,-90 409.9024,-90 409.9024,-102 409.9024,-102 409.9024,-108 403.9024,-114 397.9024,-114"/>
<text text-anchor="middle" x="370.8193" y="-93" font-family="Helvetica,sans-Serif" font-size="10.00" fill="#000000">{Feedback}</text>
</g>
<!-- A6&#45;&gt;A7 -->
<g id="edge19" class="edge">
<title>A6&#45;&gt;A7</title>
<path fill="none" stroke="#000000" d="M351.9576,-161.7255C347.6888,-156.4502 343.7492,-150.3808 341.4783,-144 338.9116,-136.7883 340.6667,-129.4934 344.3378,-122.8421"/>
<polygon fill="#000000" stroke="#000000" points="350.3055,-114.2394 348.3031,-125.0209 347.4556,-118.3477 344.6056,-122.4559 344.6056,-122.4559 344.6056,-122.4559 347.4556,-118.3477 340.9082,-119.891 350.3055,-114.2394 350.3055,-114.2394"/>
<text text-anchor="middle" x="360.9898" y="-135" font-family="Helvetica,sans-Serif" font-size="10.00" fill="#000000">__Fitting</text>
</g>
<!-- A6&#45;&gt;A7 -->
<g id="edge20" class="edge">
<title>A6&#45;&gt;A7</title>
<path fill="none" stroke="#000000" d="M376.276,-161.8491C377.7291,-156.1864 379.0951,-149.8826 379.8193,-144 380.6215,-137.4836 380.1149,-130.5175 379.0178,-123.97"/>
<polygon fill="#000000" stroke="#000000" points="376.9112,-114.1504 383.4088,-122.984 377.96,-119.0391 379.0089,-123.9279 379.0089,-123.9279 379.0089,-123.9279 377.96,-119.0391 374.609,-124.8719 376.9112,-114.1504 376.9112,-114.1504"/>
<text text-anchor="middle" x="401.4858" y="-135" font-family="Helvetica,sans-Serif" font-size="10.00" fill="#000000">__Metrics</text>
</g>
<!-- A8 -->
<g id="node9" class="node">
<title>A8</title>
<ellipse fill="none" stroke="#000000" cx="370.8193" cy="-15" rx="11" ry="11"/>
<ellipse fill="none" stroke="#000000" cx="370.8193" cy="-15" rx="15" ry="15"/>
</g>
<!-- A7&#45;&gt;A8 -->
<g id="edge21" class="edge">
<title>A7&#45;&gt;A8</title>
<path fill="none" stroke="#000000" d="M370.8193,-77.6198C370.8193,-66.6129 370.8193,-52.4617 370.8193,-40.3973"/>
<polygon fill="#000000" stroke="#000000" points="370.8193,-30.0545 375.3194,-40.0545 370.8193,-35.0545 370.8194,-40.0545 370.8194,-40.0545 370.8194,-40.0545 370.8193,-35.0545 366.3194,-40.0546 370.8193,-30.0545 370.8193,-30.0545"/>
<text text-anchor="middle" x="402.2143" y="-51" font-family="Helvetica,sans-Serif" font-size="10.00" fill="#000000">__Submission</text>
</g>
</g>
</svg>
